<svg height="512pt" viewBox="0 -26 512 512" width="512pt" xmlns="http://www.w3.org/2000/svg"><path d="m434.75 354.957031c0 5.523438 4.476562 10 10 10s10-4.476562 10-10v-5.039062c0-4.179688-1.4375-8.03125-3.847656-11.082031 2.515625-5.304688 3.847656-11.140626 3.847656-17.136719 0-23.890625-20.128906-42.109375-38.929688-44.136719-.710937-.078125-1.429687-.078125-2.144531 0-18.796875 2.027344-38.925781 20.246094-38.925781 44.136719 0 5.996093 1.332031 11.832031 3.847656 17.136719-2.410156 3.050781-3.847656 6.902343-3.847656 11.082031v90.082031h-37.25v-83.429688c0-7.449218-3.476562-14.101562-8.890625-18.425781 5.84375-11.40625 8.890625-24.015625 8.890625-37.0625 0-23.355469-9.5625-45.960937-26.933594-63.648437-15.144531-15.425782-35.144531-25.816406-53.496094-27.792969-.710937-.074219-1.429687-.074219-2.140624 0-18.355469 1.976563-38.351563 12.367187-53.5 27.792969-17.367188 17.6875-26.929688 40.292968-26.929688 63.648437 0 13.046875 3.046875 25.65625 8.890625 37.0625-5.417969 4.320313-8.890625 10.976563-8.890625 18.425781v83.429688h-37.25v-90.082031c0-4.179688-1.441406-8.03125-3.851562-11.082031 2.519531-5.304688 3.851562-11.140626 3.851562-17.136719 0-23.890625-20.128906-42.109375-38.929688-44.136719-.710937-.078125-1.429687-.078125-2.144531 0-18.796875 2.023438-38.925781 20.246094-38.925781 44.136719 0 5.996093 1.332031 11.832031 3.847656 17.136719-2.410156 3.050781-3.847656 6.902343-3.847656 11.082031v90.082031h-37.25v-295.003906c0-5.519532-4.476562-10-10-10s-10 4.480468-10 10v305.003906c0 5.523438 4.476562 10 10 10h57.25c5.523438 0 10-4.476562 10-10v-98.214844c3.105469-.660156 5.765625-2.777344 7.074219-5.761718 1.59375-3.636719.890625-7.867188-1.796875-10.789063-3.402344-3.699219-5.277344-8.507813-5.277344-13.535156 0-12.871094 11.480469-22.511719 20-24.09375 8.519531 1.582031 20 11.222656 20 24.09375 0 5.027343-1.871094 9.835937-5.277344 13.535156-2.6875 2.921875-3.390625 7.152344-1.792968 10.789063 1.308593 2.984374 3.964843 5.097656 7.070312 5.761718v98.214844c0 5.523438 4.476562 10 10 10h57.25c5.523438 0 10-4.476562 10-10v-93.429688c0-1.933593 1.636719-3.566406 3.578125-3.566406 3.757813 0 7.199219-2.109375 8.90625-5.457031 1.710937-3.347656 1.398437-7.371094-.808594-10.414063-7.636719-10.53125-11.675781-23-11.675781-36.046874 0-18.085938 7.53125-35.714844 21.203125-49.640626 11.519531-11.730468 26.859375-20.003906 40.296875-21.789062 13.4375 1.785156 28.777344 10.058594 40.300781 21.789062 13.667969 13.925782 21.199219 31.554688 21.199219 49.640626 0 13.050781-4.035156 25.515624-11.671875 36.046874-2.207031 3.042969-2.515625 7.066407-.808594 10.414063s5.152344 5.457031 8.910157 5.457031c1.933593 0 3.570312 1.632813 3.570312 3.566406v93.429688c0 5.523438 4.476562 10 10 10h57.25c5.523438 0 10-4.476562 10-10v-98.214844c3.105469-.660156 5.765625-2.777344 7.074219-5.761718 1.59375-3.636719.890625-7.871094-1.796875-10.789063-3.402344-3.699219-5.277344-8.507813-5.277344-13.535156 0-12.871094 11.480469-22.511719 20-24.09375 8.519531 1.582031 20 11.222656 20 24.09375 0 5.027343-1.875 9.835937-5.277344 13.535156-2.6875 2.921875-3.390625 7.152344-1.796875 10.789063 1.3125 2.984374 3.96875 5.097656 7.074219 5.761718zm0 0"/><path d="m505.089844 6.988281-20-6.5c-2.007813-.652343-4.171875-.652343-6.179688 0l-20 6.5c-4.121094 1.339844-6.910156 5.179688-6.910156 9.511719v33.5h-30.398438v-33.5c0-4.332031-2.789062-8.171875-6.910156-9.511719l-20-6.5c-2.007812-.652343-4.171875-.652343-6.183594 0l-20 6.5c-4.117187 1.339844-6.90625 5.179688-6.90625 9.511719v33.5h-30.402343v-33.5c0-4.332031-2.789063-8.171875-6.910157-9.511719l-20-6.5c-2.007812-.652343-4.171874-.652343-6.179687 0l-20 6.5c-4.121094 1.339844-6.910156 5.179688-6.910156 9.511719v33.5h-30.398438v-33.5c0-4.332031-2.789062-8.171875-6.910156-9.511719l-20-6.5c-2.007813-.652343-4.171875-.652343-6.179687 0l-20 6.5c-4.121094 1.339844-6.910157 5.179688-6.910157 9.511719v33.5h-30.402343v-33.5c0-4.332031-2.789063-8.171875-6.910157-9.511719l-20-6.5c-2.007812-.652343-4.171875-.652343-6.179687 0l-20 6.5c-4.121094 1.339844-6.910156 5.179688-6.910156 9.511719v33.5h-30.398438v-33.5c0-4.332031-2.789062-8.171875-6.910156-9.511719l-20-6.5c-2.007813-.652343-4.171875-.652343-6.179688 0l-20 6.5c-4.121094 1.339844-6.910156 5.179688-6.910156 9.511719v38.496094c0 5.523437 4.476562 10 10 10s10-4.476563 10-10v-31.230469l10-3.25 10 3.25v36.230469c0 5.523437 4.476562 10 10 10h50.398438c5.523437 0 10-4.476563 10-10v-36.230469l10-3.25 10 3.25v36.230469c0 5.523437 4.480468 10 10 10h50.402343c5.523438 0 10-4.476563 10-10v-36.230469l10-3.25 10 3.25v36.230469c0 5.523437 4.476563 10 10 10h50.398438c5.523437 0 10-4.476563 10-10v-36.230469l10-3.25 10 3.25v36.230469c0 5.523437 4.476562 10 10 10h50.402343c5.523438 0 10-4.476563 10-10v-36.230469l10-3.25 10 3.25v36.230469c0 5.523437 4.476563 10 10 10h50.398438c5.523438 0 10-4.476563 10-10v-36.230469l10-3.25 10 3.25v416.234375h-38.5625c-1.722656-3.011719-4.96875-5.042969-8.6875-5.042969-5.523438 0-10 4.476563-10 10v5.042969c0 5.523438 4.476562 10 10 10h57.25c5.523438 0 10-4.476562 10-10v-433.5c0-4.332031-2.789062-8.171875-6.910156-9.511719zm0 0"/><path d="m462 110c5.523438 0 10-4.476562 10-10s-4.476562-10-10-10h-412c-5.523438 0-10 4.476562-10 10s4.476562 10 10 10h6v20h-6c-5.523438 0-10 4.476562-10 10v128.683594c0 4.035156 2.425781 7.675781 6.152344 9.230468 3.722656 1.550782 8.015625.714844 10.882812-2.125 10.320313-10.222656 23.460938-16.652343 37-18.113281l3.214844-.347656 3.214844.347656c15.101562 1.628907 29.347656 9.230469 40.113281 21.410157 1.921875 2.175781 4.664063 3.375 7.492187 3.375.785157 0 1.574219-.09375 2.355469-.28125 3.601563-.875 6.425781-3.667969 7.335938-7.261719 4.820312-19.011719 14.988281-36.816407 29.398437-51.496094 18.558594-18.898437 42.480469-31.171875 65.625-33.664063l3.214844-.347656 3.214844.347656c23.144531 2.492188 47.066406 14.765626 65.625 33.664063 14.410156 14.679687 24.578125 32.484375 29.394531 51.496094.914063 3.59375 3.738281 6.386719 7.339844 7.261719 3.601562.875 7.390625-.316407 9.847656-3.09375 10.765625-12.179688 25.011719-19.78125 40.113281-21.410157l3.214844-.347656 3.214844.347656c13.539062 1.460938 26.675781 7.894531 37 18.113281 2.867187 2.839844 7.160156 3.675782 10.882812 2.125 3.726563-1.554687 6.152344-5.195312 6.152344-9.230468v-128.683594c0-5.523438-4.476562-10-10-10h-6v-20zm-101 20v-20h27.5v20zm-47.5 0v-20h27.5v20zm-47.5 0v-20h27.5v20zm-47.5 0v-20h27.5v20zm-47.5 0v-20h27.5v20zm-47.5 0v-20h27.5v20zm-47.5-20h27.5v20h-27.5zm376 138.464844c-9.882812-5.792969-20.761719-9.472656-31.894531-10.671875l-4.285157-.464844c-.710937-.074219-1.429687-.074219-2.140624 0l-4.289063.464844c-14.738281 1.589843-28.796875 7.382812-40.800781 16.652343-6.542969-16.53125-16.5625-31.878906-29.480469-45.035156-21.742187-22.144531-50.082031-36.558594-77.753906-39.539062l-4.285157-.460938c-.710937-.078125-1.429687-.078125-2.140624 0l-4.285157.460938c-27.667969 2.980468-56.007812 17.394531-77.753906 39.539062-12.917969 13.15625-22.9375 28.503906-29.480469 45.039063-12.003906-9.273438-26.0625-15.066407-40.800781-16.65625l-4.289063-.464844c-.355468-.035156-.710937-.054687-1.070312-.054687-.355469 0-.714844.019531-1.070312.054687l-4.289063.464844c-11.128906 1.199219-22.007813 4.878906-31.890625 10.671875v-98.464844h392zm-16-118.464844h-27.5v-20h27.5zm0 0"/><path d="m10 110c5.523438 0 10-4.476562 10-10v-.007812c0-5.523438-4.476562-9.996094-10-9.996094s-10 4.480468-10 10.003906 4.476562 10 10 10zm0 0"/><path d="m444.75 389.957031c-5.523438 0-10 4.480469-10 10.003907 0 5.523437 4.476562 10 10 10s10-4.480469 10-10v-.007813c0-5.523437-4.476562-9.996094-10-9.996094zm0 0"/></svg>